<svg width="150" height="151" viewBox="0 0 150 151" fill="none" xmlns="http://www.w3.org/2000/svg">
<path d="M0 56.625V132.125C0 137.337 4.19712 141.562 9.375 141.562H37.5V47.1875H9.375C4.19712 47.1875 0 51.4126 0 56.625Z" fill="white"/>
<path d="M132.687 56.623H104.993C102.571 56.623 101.358 54.9964 100.951 54.2959C100.543 53.6001 99.7192 51.743 100.891 49.614L110.655 31.9141C112.798 28.0386 113.017 23.4812 111.264 19.4121C109.511 15.3385 106.05 12.3847 101.77 11.311L94.8852 9.57834C93.2098 9.15439 91.4336 9.69354 90.2663 10.9977L52.8854 52.8029C49.0082 57.1483 46.875 62.7519 46.875 68.5858V117.967C46.875 130.976 57.3898 141.56 70.3125 141.56L116.945 141.556C127.473 141.556 136.771 134.418 139.549 124.202L149.556 77.9725C149.849 76.6868 150 75.3689 150 74.051C150 64.4429 142.232 56.6229 132.687 56.6229L132.687 56.623Z" fill="white"/>
</svg>
